HIERARCHY
ROOT Character1_Hips
{
  OFFSET -27.7497 87.9147 5.08735
  CHANNELS 6 Xposition Yposition Zposition Zrotation Xrotation Yrotation
  JOINT Character1_Spine
  {
    OFFSET 0 8.754 -1.339
    CHANNELS 3 Zrotation Xrotation Yrotation
    JOINT Character1_Spine1
    {
      OFFSET 0 10.855 -0.645
      CHANNELS 3 Zrotation Xrotation Yrotation
      JOINT Character1_LeftShoulder
      {
        OFFSET 1.467 27.745 1.178
        CHANNELS 3 Zrotation Xrotation Yrotation
        JOINT Character1_LeftArm
        {
          OFFSET 18.486 -1.858 0.275
          CHANNELS 3 Zrotation Xrotation Yrotation
          JOINT Character1_LeftForeArm
          {
            OFFSET 31.798 2.36 2.921
            CHANNELS 3 Zrotation Xrotation Yrotation
            JOINT Character1_LeftHand
            {
              OFFSET 29.001 1.642 2.112
              CHANNELS 3 Zrotation Xrotation Yrotation
              End Site
              {
                OFFSET 0.269758 0.141128 0.89614
              }
            }
            JOINT L_Radius_RIGMESH
            {
              OFFSET 0.592911 0.209926 -0.435177
              CHANNELS 3 Zrotation Xrotation Yrotation
              End Site
              {
                OFFSET 0 0 0
              }
            }
          }
          JOINT L_Humerus_RIGMESH
          {
            OFFSET 0.000383861 -0.000257932 -6.47351e-005
            CHANNELS 3 Zrotation Xrotation Yrotation
            End Site
            {
              OFFSET 0 0 0
            }
          }
        }
        JOINT L_Shoulder_RIGMESH
        {
          OFFSET 3.24498e-005 -0.000608592 -0.000527677
          CHANNELS 3 Zrotation Xrotation Yrotation
          End Site
          {
            OFFSET 0 0 0
          }
        }
      }
      JOINT Character1_RightShoulder
      {
        OFFSET -1.467 27.745 1.178
        CHANNELS 3 Zrotation Xrotation Yrotation
        JOINT Character1_RightArm
        {
          OFFSET -18.486 -1.858 0.275
          CHANNELS 3 Zrotation Xrotation Yrotation
          JOINT Character1_RightForeArm
          {
            OFFSET -31.798 2.35964 2.92082
            CHANNELS 3 Zrotation Xrotation Yrotation
            JOINT Character1_RightHand
            {
              OFFSET -29.0007 1.64167 2.112
              CHANNELS 3 Zrotation Xrotation Yrotation
              End Site
              {
                OFFSET 161.773 0.141827 0.896322
              }
            }
            JOINT R_Radius_RIGMESH
            {
              OFFSET 104.095 0.21029 -0.434995
              CHANNELS 3 Zrotation Xrotation Yrotation
              End Site
              {
                OFFSET 0 0 0
              }
            }
          }
          JOINT R_Humerus_RIGMESH
          {
            OFFSET 39.9064 -0.000257932 -6.47351e-005
            CHANNELS 3 Zrotation Xrotation Yrotation
            End Site
            {
              OFFSET 0 0 0
            }
          }
        }
        JOINT R_Shoulder_RIGMESH
        {
          OFFSET -3.24498e-005 -0.000608592 -0.000527677
          CHANNELS 3 Zrotation Xrotation Yrotation
          End Site
          {
            OFFSET 0 0 0
          }
        }
      }
      JOINT Character1_Neck
      {
        OFFSET 0 30.836 0.626
        CHANNELS 3 Zrotation Xrotation Yrotation
        JOINT Character1_Head
        {
          OFFSET 0 8.074 3.498
          CHANNELS 3 Zrotation Xrotation Yrotation
          End Site
          {
            OFFSET 0 -0.00153379 1.54668e-005
          }
        }
        JOINT Neck_RIGMESH
        {
          OFFSET -1.80997 0.332606 -0.355268
          CHANNELS 3 Zrotation Xrotation Yrotation
          End Site
          {
            OFFSET 0 0 0
          }
        }
      }
      JOINT Torso_RIGMESH
      {
        OFFSET 0 -0.000828813 -0.000380861
        CHANNELS 3 Zrotation Xrotation Yrotation
        End Site
        {
          OFFSET 0 0 0
        }
      }
    }
    JOINT Spine_RIGMESH
    {
      OFFSET 0.330977 -0.11476 -1.05422
      CHANNELS 3 Zrotation Xrotation Yrotation
      End Site
      {
        OFFSET 0 0 0
      }
    }
  }
  JOINT Character1_RightUpLeg
  {
    OFFSET -9.035 -4.63425 1.845
    CHANNELS 3 Zrotation Xrotation Yrotation
    JOINT Character1_RightLeg
    {
      OFFSET -0.919521 -40.345 1.155
      CHANNELS 3 Zrotation Xrotation Yrotation
      JOINT Character1_RightFoot
      {
        OFFSET 1.95452 -45.2655 -4.18888
        CHANNELS 3 Zrotation Xrotation Yrotation
        JOINT Character1_RightToeBase
        {
          OFFSET 1.87056 -6.69517 14.7145
          CHANNELS 3 Zrotation Xrotation Yrotation
          End Site
          {
            OFFSET 0 0 0
          }
        }
        JOINT R_Talus_RIGMESH
        {
          OFFSET 8 -7.75529 4.18888
          CHANNELS 3 Zrotation Xrotation Yrotation
          End Site
          {
            OFFSET 0 0 0
          }
        }
      }
      JOINT R_Tibia_RIGMESH
      {
        OFFSET 0 0 0
        CHANNELS 3 Zrotation Xrotation Yrotation
        End Site
        {
          OFFSET 0 0 0
        }
      }
    }
    JOINT R_Femur_RIGMESH
    {
      OFFSET 0 0 0
      CHANNELS 3 Zrotation Xrotation Yrotation
      End Site
      {
        OFFSET 0 0 0
      }
    }
  }
  JOINT Character1_LeftUpLeg
  {
    OFFSET 9.035 -4.63425 1.845
    CHANNELS 3 Zrotation Xrotation Yrotation
    JOINT Character1_LeftLeg
    {
      OFFSET 0.919521 -40.345 1.155
      CHANNELS 3 Zrotation Xrotation Yrotation
      JOINT Character1_LeftFoot
      {
        OFFSET -1.95452 -45.2655 -4.18888
        CHANNELS 3 Zrotation Xrotation Yrotation
        JOINT Character1_LeftToeBase
        {
          OFFSET -1.87056 -6.69517 14.7145
          CHANNELS 3 Zrotation Xrotation Yrotation
          End Site
          {
            OFFSET 0 0 0
          }
        }
        JOINT L_Talus_RIGMESH
        {
          OFFSET -8 -7.75529 4.18888
          CHANNELS 3 Zrotation Xrotation Yrotation
          End Site
          {
            OFFSET 0 0 0
          }
        }
      }
      JOINT L_Tibia_RIGMESH
      {
        OFFSET 0 0 0
        CHANNELS 3 Zrotation Xrotation Yrotation
        End Site
        {
          OFFSET 0 0 0
        }
      }
    }
    JOINT L_Femur_RIGMESH
    {
      OFFSET 0 0 0
      CHANNELS 3 Zrotation Xrotation Yrotation
      End Site
      {
        OFFSET 0 0 0
      }
    }
  }
  JOINT Pelvis_RIGMESH
  {
    OFFSET 0 0 0
    CHANNELS 3 Zrotation Xrotation Yrotation
    End Site
    {
      OFFSET 0 0 0
    }
  }
}
MOTION
Frames:	4
Frame Time:	0.00833333
57.9735 87.7207 18.8845 -5.50282 -7.19363 5.37132 -7.95139e-016 7.95139e-016 -7.95139e-016 -24.798 23.6227 -2.00621 -7.53903 -2.75051 -11.0264 -50.194 -13.5109 -46.5984 0.000647368 0.00129435 -99.3263 18.0527 19.5361 7.58575 -9.93923e-017 -1.98785e-016 3.18055e-015 2.20695e-032 1.98785e-016 -6.36111e-015 -8.34896e-015 -3.18055e-015 -0 -1.61329 4.69589 15.1781 61.1649 -5.83928 -22.9011 0.00373362 -0.0005826 65.9488 7.22398 3.07916 -8.52082 3.18055e-015 -4.77083e-015 3.18055e-015 -4.77083e-015 4.77083e-015 -3.18055e-015 7.95139e-016 6.36111e-015 -0 -1.15357e-014 3.18055e-015 -5.96354e-016 7.82417 1.41818 1.8948 -1.88115 -0.599537 0.978848 -1.15357e-014 3.18055e-015 -5.96354e-016 -8.17565 7.751 -1.80576 -19.9367 -28.8425 -13.8499 0.182775 65.5284 -0.431819 10.9414 17.7023 -4.76038 12.4767 -23.934 1.08278 3.18055e-015 3.18055e-015 -0 -3.97569e-015 3.18055e-015 -0 4.77083e-015 6.36111e-015 -0 23.5013 -19.4505 24.4246 0.0253477 55.2081 0.119901 -5.3811 -19.1679 -6.0342 -0.224805 -8.02807 -0.014765 0 7.95139e-016 -0 -3.18055e-015 -3.18055e-015 -0 4.77083e-015 0 6.36111e-015 -7.95139e-016 7.95139e-016 -7.95139e-016 
57.6852 87.3781 18.8353 -5.80167 -7.42872 4.67014 -1.39149e-015 0 -0 -24.6341 23.8809 -2.20529 -7.13119 -2.64553 -11.1902 -50.2393 -14.4783 -47.2087 0.000786665 0.00132018 -98.9911 17.8783 19.9351 7.85827 0 0 -0 -1.98785e-016 3.97569e-016 -6.36111e-015 -5.56597e-015 -1.59028e-015 -1.59028e-015 -1.74914 4.53627 15.3822 60.5532 -6.54685 -22.6436 0.00378864 -0.000569921 66.9381 7.23123 3.24958 -8.8479 3.18055e-015 0 -6.36111e-015 -1.59028e-015 3.18055e-015 -0 4.77083e-015 -3.18055e-015 -1.59028e-015 -1.04362e-015 -3.18055e-015 -3.97569e-016 8.21236 1.40243 2.03248 -1.74939 -0.26793 0.994364 -1.04362e-015 -3.18055e-015 -3.97569e-016 -8.12877 7.82854 -1.87539 -20.6538 -29.6375 -14.852 0.216468 66.5561 -0.471992 10.964 19.4518 -4.69153 12.6576 -24.5566 1.11068 -2.64834e-031 -3.18055e-015 -4.77083e-015 -7.95139e-016 6.36111e-015 1.59028e-015 3.18055e-015 -6.36111e-015 -1.59028e-015 24.3758 -19.5083 24.7767 0.0329416 56.1602 0.0887036 -5.68289 -19.397 -5.80713 -0.230581 -8.23348 -0.0152038 -3.97569e-016 1.59028e-015 -0 -1.59028e-015 0 9.54166e-015 3.18055e-015 0 -3.18055e-015 -1.39149e-015 0 -0 
57.3807 87.0562 18.7927 -6.09997 -7.64387 3.99213 -1.39149e-015 0 -0 -24.4752 24.1277 -2.39056 -6.72317 -2.59673 -11.3163 -50.1473 -15.3913 -47.8526 0.00133637 -0.000505481 -98.3544 17.6668 20.2194 8.16135 -1.98785e-016 -1.98785e-016 -3.18055e-015 -1.98785e-016 0 3.18055e-015 -6.36111e-015 7.95139e-015 -4.77083e-015 -1.87562 4.40356 15.5671 59.8198 -7.33456 -22.5353 0.00384381 -0.00055158 68.1169 7.44883 3.54151 -9.24217 -1.59028e-015 0 -0 -1.59028e-015 0 -0 2.38542e-015 -6.36111e-015 -0 -6.26172e-015 0 -1.98785e-015 8.65473 1.41846 2.18215 -1.56694 0.118978 0.987838 -6.26172e-015 0 -1.98785e-015 -8.08315 7.90305 -1.93996 -21.4241 -30.4151 -15.8362 0.252756 67.4951 -0.517345 11.0865 21.2942 -4.68242 12.783 -24.9777 1.13044 2.64834e-031 3.18055e-015 -4.77083e-015 -1.59028e-015 3.18055e-015 1.59028e-015 2.38542e-015 -6.36111e-015 -0 25.2681 -19.536 25.1621 0.0409254 57.0444 0.0560297 -5.98933 -19.5771 -5.64059 -0.235782 -8.41812 -0.015654 3.97569e-016 -2.38542e-015 -0 -1.76556e-031 3.18055e-015 3.18055e-015 3.18055e-015 1.27222e-014 -0 -1.39149e-015 0 -0 
57.0606 86.7506 18.756 -6.39283 -7.83776 3.33654 7.95139e-016 3.18055e-015 7.95139e-016 -24.3264 24.3631 -2.55257 -6.30521 -2.62438 -11.3948 -49.9366 -16.2258 -48.5536 0.00289209 -0.00519118 -97.3828 17.3975 20.3493 8.51359 -2.20695e-032 -1.98785e-016 -6.36111e-015 3.31043e-032 5.96354e-016 -3.18055e-015 -5.1684e-015 1.59028e-015 -3.18055e-015 -1.98616 4.30869 15.7317 58.9361 -8.21552 -22.6028 0.00389958 -0.000525494 69.5569 7.95206 4.01626 -9.72549 3.18055e-015 -3.18055e-015 3.18055e-015 1.59028e-015 3.18055e-015 -9.54166e-015 -3.18055e-015 3.18055e-015 -0 -6.95746e-015 -3.18055e-015 -7.55382e-015 9.16151 1.46418 2.34542 -1.32385 0.570578 0.95121 -6.95746e-015 -3.18055e-015 -7.55382e-015 -8.03995 7.97489 -1.99663 -22.2517 -31.1865 -16.7924 0.292427 68.3432 -0.569047 11.3387 23.2833 -4.73345 12.9343 -25.2565 1.15053 3.18055e-015 -6.36111e-015 1.59028e-015 0 0 -3.18055e-015 1.59028e-015 6.36111e-015 -1.59028e-015 26.1848 -19.539 25.5965 0.0492143 57.8731 0.0214293 -6.30368 -19.7019 -5.54734 -0.24047 -8.58436 -0.016107 -0 0 3.18055e-015 -0 0 3.18055e-015 -3.18055e-015 6.36111e-015 -6.36111e-015 7.95139e-016 3.18055e-015 7.95139e-016 
